# xmcd
#
# Track frame offsets: 
#        150
#        42297
#        84435
#        118375
#        168190
#        189102
#        223142
#        231767
#        264437
#        282625
#
# Disc length: 4126 seconds
#
# Revision: 3
# Processed by: cddbd v1.5.2PL0 Copyright (c) Steve Scherf et al.
# Submitted via: ExactAudioCopy v1.1
#
DISCID=8c101c0a
DTITLE=EMIL GILELS - PIANO SONATAS NOS.17,21,26
DYEAR=1900
DGENRE=Classical
TTITLE0=????17? ??? ??31?2 ??????? ?1??:???-????
TTITLE1=????17? ??? ??31?2 ??????? ?2??:?????
TTITLE2=????17? ??? ??31?2 ??????? ?3??:??????
TTITLE3=????21? ??? ??53 ?????????? ?1??:???????????
TTITLE4=????21? ??? ??53 ?????????? ?2??:??:?????????(????)
TTITLE5=????21? ??? ??53 ?????????? ?3??:???;????????????-
TTITLE6=????21? ??? ??53 ?????????? ?3??:????????
TTITLE7=????26? ???? ??81a ???? ?1??:??;?????-????
TTITLE8=????26? ???? ??81a ???? ?2??:??;???????????????
TTITLE9=????26? ???? ??81a ???? ?3??:??;????????????
EXTD=
EXTT0=
EXTT1=
EXTT2=
EXTT3=
EXTT4=
EXTT5=
EXTT6=
EXTT7=
EXTT8=
EXTT9=
PLAYORDER=
